<svg xmlns="http://www.w3.org/2000/svg" version="1.1" xmlns:xlink="http://www.w3.org/1999/xlink" xmlns:svgjs="http://svgjs.dev/svgjs" width="2000" height="1247" viewBox="0 0 2000 1247"><g transform="matrix(1,0,0,1,-1.2121212121212466,0.504858299595071)"><svg viewBox="0 0 396 247" data-background-color="#dedede" preserveAspectRatio="xMidYMid meet" height="1247" width="2000" xmlns="http://www.w3.org/2000/svg" xmlns:xlink="http://www.w3.org/1999/xlink"><g id="tight-bounds" transform="matrix(1,0,0,1,0.2400000000000091,-0.09999999999999432)"><svg viewBox="0 0 395.52 247.2" height="247.2" width="395.52"><g><svg></svg></g><g><svg viewBox="0 0 395.52 247.2" height="247.2" width="395.52"><g mask="url(#fe5fb2cb-ef7e-4efb-a93d-700cd7090c3e)"><g><path xmlns="http://www.w3.org/2000/svg" d="M223.284 173.274l-5.265-13.735h-64.783c-7.173 16.177-10.759 27.393-10.759 33.651v0c0 4.578 1.724 7.478 5.174 8.699 3.418 1.221 8.561 1.831 15.429 1.831v0 9.156h-62.723v-9.156c3.663-0.458 6.837-1.068 9.523-1.831 2.655-0.763 5.021-1.831 7.096-3.205 2.045-1.373 3.83-3.174 5.357-5.403 1.526-2.198 2.976-4.899 4.349-8.103v0l60.205-150.854h16.939l54.711 133.685c3.205 7.783 5.921 13.887 8.149 18.313 2.198 4.426 4.563 7.814 7.096 10.164 2.503 2.381 5.402 4.029 8.699 4.945 3.266 0.916 7.493 1.602 12.682 2.06v0 9.385h-86.53v-9.385c7.325-0.305 12.59-1.068 15.795-2.289 3.205-1.221 4.807-3.663 4.808-7.325v0c0-2.137-0.534-4.883-1.603-8.241-1.068-3.357-2.518-7.478-4.349-12.362zM185.742 76.444l-27.241 69.361h54.482l-26.325-69.361z" fill="#374151" fill-rule="nonzero" stroke="none" stroke-width="1" stroke-linecap="butt" stroke-linejoin="miter" stroke-miterlimit="10" stroke-dasharray="" stroke-dashoffset="0" font-family="none" font-weight="none" font-size="none" text-anchor="none" style="mix-blend-mode: normal" data-fill-palette-color="tertiary"></path></g></g><g transform="matrix(1,0,0,1,99.93168421052631,37.08)"><svg viewBox="0 0 195.65663157894735 173.04" height="173.04" width="195.65663157894735"><g><svg viewBox="0 0 195.65663157894735 173.04" height="173.04" width="195.65663157894735"><g><svg viewBox="0 0 195.65663157894735 173.04" height="173.04" width="195.65663157894735"><g><svg viewBox="0 0 195.65663157894735 173.04" height="173.04" width="195.65663157894735"><g id="textblocktransform"><svg viewBox="0 0 195.65663157894735 173.04" height="173.04" width="195.65663157894735" id="textblock"><g><svg viewBox="0 0 195.65663157894735 173.04" height="173.04" width="195.65663157894735"><g transform="matrix(1,0,0,1,0,0)"><svg width="195.65663157894735" viewBox="-3.650000035762787 -42 65.45000076293945 58" height="173.04" data-palette-color="#374151"><path d="M26.2-8.65L25.05-11.65 10.9-11.65Q8.55-6.35 8.55-4.3L8.55-4.3Q8.55-2.8 9.68-2.4 10.8-2 13.05-2L13.05-2 13.05 0-0.65 0-0.65-2Q0.55-2.15 1.43-2.4 2.3-2.65 2.98-3.1 3.65-3.55 4.15-4.28 4.65-5 5.1-6.05L5.1-6.05 18.25-39 21.95-39 33.9-9.8Q34.95-7.25 35.68-5.8 36.4-4.35 37.23-3.58 38.05-2.8 39.13-2.5 40.2-2.2 41.9-2.05L41.9-2.05 41.9 0 23 0 23-2.05Q25.4-2.15 26.45-2.55 27.5-2.95 27.5-4.15L27.5-4.15Q27.5-4.85 27.15-5.95 26.8-7.05 26.2-8.65L26.2-8.65ZM18-29.8L12.05-14.65 23.95-14.65 18.2-29.8 18-29.8ZM46.7 1.15L46.7-30.8Q46.7-32.55 46.52-33.63 46.35-34.7 45.85-35.33 45.35-35.95 44.42-36.18 43.5-36.4 41.95-36.5L41.95-36.5 41.95-38.5 58.8-38.5 58.8-36.5Q57.25-36.45 56.3-36.2 55.35-35.95 54.85-35.3 54.35-34.65 54.2-33.5 54.05-32.35 54.05-30.45L54.05-30.45 54.05 0.1Q54.05 6.4 50.85 9.7 47.65 13 41.3 13L41.3 13Q36.75 13 34.27 11.45 31.8 9.9 31.8 7.5L31.8 7.5Q31.8 6.05 32.72 5.28 33.65 4.5 35 4.5L35 4.5Q36.15 4.5 36.82 5.1 37.5 5.7 38.5 7.35L38.5 7.35Q39.5 9 40.3 9.55 41.1 10.1 42.25 10.1L42.25 10.1Q44.4 10.1 45.55 7.75 46.7 5.4 46.7 1.15L46.7 1.15Z" opacity="1" transform="matrix(1,0,0,1,0,0)" fill="#374151" class="undefined-text-0" data-fill-palette-color="primary" id="text-0"></path></svg></g></svg></g></svg></g></svg></g><g></g></svg></g></svg></g></svg></g></svg></g><defs><mask id="fe5fb2cb-ef7e-4efb-a93d-700cd7090c3e"><rect width="395.52" height="247.2" fill="white"></rect><g transform="matrix(1,0,0,1,99.93168421052631,37.08)" id="clone"><svg viewBox="0 0 195.65663157894735 173.04" height="173.04" width="195.65663157894735"><g><svg viewBox="0 0 195.65663157894735 173.04" height="173.04" width="195.65663157894735"><g><svg viewBox="0 0 195.65663157894735 173.04" height="173.04" width="195.65663157894735"><g><svg viewBox="0 0 195.65663157894735 173.04" height="173.04" width="195.65663157894735"><g id="SvgjsG1385"><svg viewBox="0 0 195.65663157894735 173.04" height="173.04" width="195.65663157894735" id="SvgjsSvg1384"><g><svg viewBox="0 0 195.65663157894735 173.04" height="173.04" width="195.65663157894735"><g transform="matrix(1,0,0,1,0,0)"><svg width="195.65663157894735" viewBox="-3.650000035762787 -42 65.45000076293945 58" height="173.04" data-palette-color="#374151"><path d="M26.2-8.65L25.05-11.65 10.9-11.65Q8.55-6.35 8.55-4.3L8.55-4.3Q8.55-2.8 9.68-2.4 10.8-2 13.05-2L13.05-2 13.05 0-0.65 0-0.65-2Q0.55-2.15 1.43-2.4 2.3-2.65 2.98-3.1 3.65-3.55 4.15-4.28 4.65-5 5.1-6.05L5.1-6.05 18.25-39 21.95-39 33.9-9.8Q34.95-7.25 35.68-5.8 36.4-4.35 37.23-3.58 38.05-2.8 39.13-2.5 40.2-2.2 41.9-2.05L41.9-2.05 41.9 0 23 0 23-2.05Q25.4-2.15 26.45-2.55 27.5-2.95 27.5-4.15L27.5-4.15Q27.5-4.85 27.15-5.95 26.8-7.05 26.2-8.65L26.2-8.65ZM18-29.8L12.05-14.65 23.95-14.65 18.2-29.8 18-29.8ZM46.7 1.15L46.7-30.8Q46.7-32.55 46.52-33.63 46.35-34.7 45.85-35.33 45.35-35.95 44.42-36.18 43.5-36.4 41.95-36.5L41.95-36.5 41.95-38.5 58.8-38.5 58.8-36.5Q57.25-36.45 56.3-36.2 55.35-35.95 54.85-35.3 54.35-34.65 54.2-33.5 54.05-32.35 54.05-30.45L54.05-30.45 54.05 0.1Q54.05 6.4 50.85 9.7 47.65 13 41.3 13L41.3 13Q36.75 13 34.27 11.45 31.8 9.9 31.8 7.5L31.8 7.5Q31.8 6.05 32.72 5.28 33.65 4.5 35 4.5L35 4.5Q36.15 4.5 36.82 5.1 37.5 5.7 38.5 7.35L38.5 7.35Q39.5 9 40.3 9.55 41.1 10.1 42.25 10.1L42.25 10.1Q44.4 10.1 45.55 7.75 46.7 5.4 46.7 1.15L46.7 1.15Z" opacity="1" transform="matrix(1,0,0,1,0,0)" fill="#374151" class="undefined-text-0" data-fill-palette-color="primary" id="SvgjsPath1383" stroke-width="5" stroke="black" stroke-linejoin="round"></path></svg></g></svg></g></svg></g></svg></g><g></g></svg></g></svg></g></svg></g></mask></defs></svg><rect width="395.52" height="247.2" fill="none" stroke="none" visibility="hidden"></rect></g></svg></g></svg>